<svg xmlns="http://www.w3.org/2000/svg" width="1em" height="1em" viewBox="0 0 128 128">
  <path fill="#4E7A2E" d="M69.5 33.8c6.4-9.7 17.1-16.4 27.9-16.9c1.9-.1 3.1 2 2 3.5c-6.2 8.8-15.9 15.1-26.6 16.9c-2.6.4-4.7-1.3-3.3-3.5z"/>
  <path fill="#6BA03C" d="M71 20.6c-4.2-6.1-11-10.3-17.9-11.4c-1.6-.3-2.8 1.4-2 2.8c3.9 6.6 10.6 11.2 18 12.3c1.8.3 3-2.2 1.9-3.7z"/>
  <path fill="#7B3F98" d="M64 30.5c22.4 0 39.8 18.6 39.8 45.2S86.4 121 64 121s-39.8-18.7-39.8-45.3S41.6 30.5 64 30.5z"/>
  <path fill="#5C2C77" d="M64 30.5c-4.5 0-8.8.8-12.8 2.2c15.9 5.5 27 22.3 27 43c0 20.8-11.1 37.6-27 43.1c4 1.4 8.3 2.2 12.8 2.2c22.4 0 39.8-18.7 39.8-45.3S86.4 30.5 64 30.5z"/>
  <path fill="#3F1E52" d="M64 30.5c2.5 0 4.9.2 7.2.7c-1 15-3.6 60.6-3.6 88.9c0 .3 0 .6-.1.9c-1.2 0-2.3 0-3.5 0V30.5z" opacity=".55"/>
  <ellipse cx="45.5" cy="58" rx="10" ry="15" fill="#B784D6" opacity=".55" transform="rotate(-22 45.5 58)"/>
</svg>
